# xmcd
#
# Track frame offsets: 
#        150
#        18565
#        35863
#        54448
#        77491
#        100267
#        123790
#        148296
#        168637
#        191687
#        211125
#        229078
#
# Disc length: 3356 seconds
#
# Revision: 0
# Processed by: cddbd v1.5.2PL0 Copyright (c) Steve Scherf et al.
# Submitted via: ExactAudioCopy v0.95b3
#
DISCID=a50d1a0c
DTITLE=Coco Montoya - Suspicion
DYEAR=1900
DGENRE=Blues
TTITLE0=Enough Is Enough
TTITLE1=Casting My Spell
TTITLE2=I Need Your Love In My Life
TTITLE3=Fool
TTITLE4=Don't Take It Personally
TTITLE5=Get Your Business Straight
TTITLE6=Trading One Fool For Another
TTITLE7=Beyond The Blues
TTITLE8=Good Days, Bad Days
TTITLE9=What I Know Now
TTITLE10=You Didn't Think About That
TTITLE11=Nothing But Love
EXTD=
EXTT0=
EXTT1=
EXTT2=
EXTT3=
EXTT4=
EXTT5=
EXTT6=
EXTT7=
EXTT8=
EXTT9=
EXTT10=
EXTT11=
PLAYORDER=
